Coordinates
version=1
nRows=24
nColumns=24
inDegrees=yes

Units are S.I. units (second, meters, Newtons, ...)
Angles are in degrees.

endheader
time	pelvis_tilt	pelvis_list	pelvis_rotation	pelvis_tx	pelvis_ty	pelvis_tz	hip_flexion_r	hip_adduction_r	hip_rotation_r	knee_angle_r	ankle_angle_r	subtalar_angle_r	mtp_angle_r	hip_flexion_l	hip_adduction_l	hip_rotation_l	knee_angle_l	ankle_angle_l	subtalar_angle_l	mtp_angle_l	lumbar_extension	lumbar_bending	lumbar_rotation
      3.63000000	     -8.25347179	     -7.91070503	      2.99920407	     -0.98885956	     -0.01589083	      0.62958171	     14.28784840	     11.43770540	     -4.90021783	    -12.56224784	      0.35144541	     -5.85863814	      2.70116564	     28.36781625	    -14.24903732	     -7.89477971	    -66.92940123	     -8.02987278	     16.51531737	     20.41581750	      6.99716763	      8.39856065	     -3.16935650
      3.63500000	     -8.23934838	     -7.71125849	      2.67001278	     -0.98296209	     -0.01513155	      0.63013219	     13.50897568	     11.36413660	     -4.56311901	    -11.98410471	      0.49078397	     -5.56257657	      2.82192744	     29.08629669	    -14.10342558	     -8.22009811	    -66.53481515	     -7.84014933	     16.93132917	     20.61467412	      6.86913248	      8.23371227	     -2.75351747
      3.64000000	     -8.17612357	     -7.49486830	      2.30133931	     -0.97712457	     -0.01439883	      0.63068846	     12.68565125	     11.27293003	     -4.12454299	    -11.42477868	      0.65929756	     -5.27307401	      2.95393896	     29.71807413	    -13.96349343	     -8.61770187	    -66.07426115	     -7.67450692	     17.16511532	     20.73992879	      6.67016259	      8.06657765	     -2.26380578
      3.64500000	     -8.12818689	     -7.29083141	      1.94164749	     -0.97127523	     -0.01375869	      0.63125693	     11.89131517	     11.18309370	     -3.71700823	    -10.88200488	      0.81305273	     -5.00045108	      3.04768774	     30.35092146	    -13.83467999	     -8.99786638	    -65.55289602	     -7.48445555	     17.40760137	     20.78146167	      6.49774246	      7.90455630	     -1.80449909
      3.65000000	     -8.09357880	     -7.08666902	      1.57579260	     -0.96541981	     -0.01320267	      0.63184596	     11.12423742	     11.08393279	     -3.31978410	    -10.36148386	      0.96920740	     -4.72524700	      3.11628062	     30.97267784	    -13.71353017	     -9.38736128	    -64.96690952	     -7.28026107	     17.63366920	     20.74550665	      6.34439396	      7.73850399	     -1.35452093
      3.65500000	     -8.03807636	     -6.88475537	      1.19958525	     -0.95960807	     -0.01270411	      0.63243253	     10.34578395	     10.97850776	     -2.89406758	     -9.85529787	      1.13498288	     -4.45535659	      3.17521973	     31.55138526	    -13.60277753	     -9.79790133	    -64.32590448	     -7.07436940	     17.75215869	     20.59568323	      6.16296205	      7.57786164	     -0.87938565
      3.66000000	     -7.99210518	     -6.68988839	      0.82771937	     -0.95380326	     -0.01229278	      0.63301330	      9.58961559	     10.86800660	     -2.47965708	     -9.36532966	      1.30360422	     -4.18588698	      3.22928225	     32.12048169	    -13.49989891	    -10.20326894	    -63.62534635	     -6.85693626	     17.84855942	     20.37280892	      5.99685271	      7.42198307	     -0.42157307
      3.66500000	     -7.94006971	     -6.50005546	      0.45453872	     -0.94801925	     -0.01195048	      0.63360101	      8.83853629	     10.75294300	     -2.06761570	     -8.88986721	      1.47617653	     -3.91692306	      3.28736994	     32.66075032	    -13.40661164	    -10.61415316	    -62.86778765	     -6.62998585	     17.89295109	     20.04728349	      5.82437473	      7.26951574	      0.04241861
      3.67000000	     -7.89533871	     -6.31738010	      0.08732654	     -0.94223988	     -0.01168975	      0.63418153	      8.10635574	     10.63342483	     -1.67206657	     -8.42826951	      1.65309719	     -3.64632135	      3.35694405	     33.18672610	    -13.31952968	    -11.01934310	    -62.05053641	     -6.39503133	     17.91276023	     19.64958660	      5.66363435	      7.12217744	      0.49255456
      3.67500000	     -7.84833956	     -6.14123496	     -0.27726366	     -0.93648098	     -0.01149642	      0.63475175	      7.38505914	     10.50988562	     -1.29007043	     -7.98329574	      1.83385431	     -3.37383938	      3.44634863	     33.68585104	    -13.23757923	    -11.42036641	    -61.17231993	     -6.15127234	     17.90886348	     19.16299571	      5.50378551	      6.98060114	      0.94096624
      3.68000000	     -7.80717909	     -5.97242342	     -0.62932553	     -0.93073298	     -0.01138477	      0.63531062	      6.68166624	     10.38235503	     -0.92939460	     -7.55084040	      2.01646921	     -3.09968611	      3.55981771	     34.16975620	    -13.15792573	    -11.81080593	    -60.23637693	     -5.89899009	     17.89383434	     18.61139272	      5.35012539	      6.84208794	      1.37446122
      3.68500000	     -7.71876530	     -5.85502448	     -0.95088052	     -0.92503000	     -0.01133526	      0.63580618	      5.93618223	     10.29363870	     -0.59740890	     -7.12069910	      2.19653452	     -2.82694467	      3.74353173	     34.60268158	    -13.10908274	    -12.13884739	    -59.27936989	     -5.58211739	     17.93953094	     17.78348829	      5.14081387	      6.75661721	      1.80751908
      3.69000000	     -7.69915242	     -5.70656871	     -1.28432907	     -0.91929438	     -0.01139401	      0.63632630	      5.28146735	     10.16655982	     -0.27090280	     -6.72191861	      2.39462163	     -2.55503917	      3.93160213	     35.06064728	    -13.03963708	    -12.51619020	    -58.22411396	     -5.31907329	     17.91938622	     17.11677341	      5.02014826	      6.63661123	      2.19643636
      3.69500000	     -7.68139807	     -5.55868422	     -1.59341451	     -0.91356761	     -0.01150779	      0.63681191	      4.64508996	     10.03007906	      0.03032370	     -6.34627901	      2.59725853	     -2.29940480	      4.11507231	     35.49277262	    -12.94757532	    -12.85950410	    -57.08827378	     -5.09155459	     17.89159886	     16.51033334	      4.90555440	      6.50914281	      2.58222925
      3.70000000	     -7.69313355	     -5.39841709	     -1.88052872	     -0.90781421	     -0.01169817	      0.63725895	      4.05567513	      9.87327738	      0.29551378	     -5.99586823	      2.79945835	     -2.07493405	      4.27396790	     35.91782850	    -12.82816573	    -13.20200307	    -55.86307846	     -4.88721033	     17.87969911	     15.98809045	      4.83144780	      6.36986173	      2.92461586
      3.70500000	     -7.67999438	     -5.25939052	     -2.16094161	     -0.90207844	     -0.01194359	      0.63769144	      3.45068980	      9.73021002	      0.57633215	     -5.66328110	      3.02362577	     -1.83808981	      4.45256462	     36.29105214	    -12.72251444	    -13.52368403	    -54.58343990	     -4.68167672	     17.91550349	     15.43215872	      4.73153292	      6.24576871	      3.27511206
      3.71000000	     -7.60808347	     -5.16189591	     -2.42494213	     -0.89639969	     -0.01222883	      0.63804098	      2.79482368	      9.61658053	      0.85252226	     -5.34353682	      3.26502546	     -1.58983486	      4.70742902	     36.59217523	    -12.63915304	    -13.81281030	    -53.28336553	     -4.43683248	     18.00601079	     14.65188187	      4.55200450	      6.17383018	      3.64545059
      3.71500000	     -7.67865315	     -5.04634360	     -2.62074617	     -0.89061829	     -0.01270034	      0.63834179	      2.31342064	      9.48903235	      1.04296482	     -5.06625923	      3.49303254	     -1.44850306	      4.82471108	     37.01299171	    -12.48889538	    -14.03583837	    -51.86314385	     -4.27501855	     18.15456883	     14.26830999	      4.56198041	      6.06989204	      3.85831725
      3.72000000	     -7.59924554	     -4.93028541	     -2.89031654	     -0.88493252	     -0.01305860	      0.63863493	      1.68569294	      9.34085024	      1.33763983	     -4.81309634	      3.76446801	     -1.20426132	      5.05902450	     37.21987685	    -12.36958073	    -14.33317389	    -50.41034467	     -4.07378822	     18.31970075	     13.54359720	      4.37694555	      5.98128154	      4.25533173
      3.72500000	     -7.67382976	     -4.84072786	     -3.04211642	     -0.87914901	     -0.01366835	      0.63884527	      1.24135218	      9.23112510	      1.50883047	     -4.59502346	      4.02313724	     -1.09587132	      5.16356528	     37.59630210	    -12.19973297	    -14.48260934	    -48.87714345	     -3.94849277	     18.62104398	     13.19671531	      4.39472947	      5.90091840	      4.42284767
      3.73000000	     -7.59940032	     -4.71639995	     -3.28423128	     -0.87339548	     -0.01413967	      0.63903648	      0.64309434	      9.06089586	      1.77978134	     -4.38787840	      4.32435022	     -0.88405356	      5.37044242	     37.73735864	    -12.03337496	    -14.75368827	    -47.29972421	     -3.76044352	     18.90329837	     12.50857465	      4.22824168	      5.80508288	      4.80929128
      3.73500000	     -7.61005409	     -4.60863312	     -3.44878394	     -0.86755263	     -0.01476447	      0.63915935	      0.14540873	      8.91235743	      1.97117959	     -4.19942912	      4.60296677	     -0.74530551	      5.52891705	     37.96150177	    -11.82971477	    -14.92530133	    -45.66938020	     -3.61139513	     19.31907279	     11.93443456	      4.18047726	      5.71399702	      5.05652645
      3.74000000	     -7.62214842	     -4.51671556	     -3.60790262	     -0.86174634	     -0.01545815	      0.63924018	     -0.32427633	      8.77746474	      2.16959113	     -4.06054171	      4.90788616	     -0.62292028	      5.66319582	     38.16555557	    -11.62286782	    -15.05109331	    -43.99434121	     -3.48500699	     19.78460170	     11.44374298	      4.12559493	      5.64481678	      5.29646829
      3.74500000	     -7.70654880	     -4.46158864	     -3.70812511	     -0.85589607	     -0.01633695	      0.63925205	     -0.69679144	      8.69016586	      2.31892912	     -3.96759760	      5.23849083	     -0.57585260	      5.73841422	     38.44707868	    -11.40694595	    -15.07472670	    -42.28820841	     -3.38552687	     20.32657930	     11.18681427	      4.16058433	      5.60677639	      5.42486075
